<mxfile host="app.diagrams.net" modified="2021-03-19T07:07:01.658Z" agent="5.0 (Macintosh; Intel Mac OS X 11_2_0) AppleWebKit/537.36 (KHTML, like Gecko) Chrome/89.0.4389.90 Safari/537.36" etag="Ng27AexTOxl8ETBq6Ouw" version="14.4.4" type="github">
  <diagram id="DJgDheJ_IyIWNIb3JDK7" name="第 1 页">
    <mxGraphModel dx="1188" dy="554" grid="1" gridSize="10" guides="1" tooltips="1" connect="1" arrows="1" fold="1" page="1" pageScale="1" pageWidth="827" pageHeight="1169" math="0" shadow="0">
      <root>
        <mxCell id="0" />
        <mxCell id="1" parent="0" />
        <mxCell id="rq3qgnEquFNVza2dhn3r-1" value="地形(风，雨，&#xa;地杂波，海杂波)" style="ellipse;aspect=fixed;" vertex="1" parent="1">
          <mxGeometry x="360" y="280" width="100" height="100" as="geometry" />
        </mxCell>
        <mxCell id="rq3qgnEquFNVza2dhn3r-2" value="方向" style="ellipse;whiteSpace=wrap;html=1;aspect=fixed;" vertex="1" parent="1">
          <mxGeometry x="460" y="230" width="50" height="50" as="geometry" />
        </mxCell>
        <mxCell id="rq3qgnEquFNVza2dhn3r-3" value="距离" style="ellipse;whiteSpace=wrap;html=1;aspect=fixed;" vertex="1" parent="1">
          <mxGeometry x="520" y="180" width="50" height="50" as="geometry" />
        </mxCell>
        <mxCell id="rq3qgnEquFNVza2dhn3r-4" value="形态" style="ellipse;whiteSpace=wrap;html=1;aspect=fixed;" vertex="1" parent="1">
          <mxGeometry x="580" y="130" width="50" height="50" as="geometry" />
        </mxCell>
        <mxCell id="rq3qgnEquFNVza2dhn3r-5" value="" style="endArrow=classic;html=1;exitX=1;exitY=0;exitDx=0;exitDy=0;entryX=0;entryY=1;entryDx=0;entryDy=0;" edge="1" parent="1" source="rq3qgnEquFNVza2dhn3r-1" target="rq3qgnEquFNVza2dhn3r-2">
          <mxGeometry width="50" height="50" relative="1" as="geometry">
            <mxPoint x="480" y="440" as="sourcePoint" />
            <mxPoint x="530" y="390" as="targetPoint" />
          </mxGeometry>
        </mxCell>
        <mxCell id="rq3qgnEquFNVza2dhn3r-6" value="" style="endArrow=classic;html=1;exitX=1;exitY=0;exitDx=0;exitDy=0;entryX=0;entryY=1;entryDx=0;entryDy=0;" edge="1" parent="1" source="rq3qgnEquFNVza2dhn3r-2" target="rq3qgnEquFNVza2dhn3r-3">
          <mxGeometry width="50" height="50" relative="1" as="geometry">
            <mxPoint x="455.3553390593272" y="304.6446609406728" as="sourcePoint" />
            <mxPoint x="477.3223304703363" y="282.6776695296637" as="targetPoint" />
          </mxGeometry>
        </mxCell>
        <mxCell id="rq3qgnEquFNVza2dhn3r-7" value="" style="endArrow=classic;html=1;exitX=1;exitY=0;exitDx=0;exitDy=0;entryX=0;entryY=1;entryDx=0;entryDy=0;" edge="1" parent="1" source="rq3qgnEquFNVza2dhn3r-3" target="rq3qgnEquFNVza2dhn3r-4">
          <mxGeometry width="50" height="50" relative="1" as="geometry">
            <mxPoint x="512.6776695296637" y="247.3223304703365" as="sourcePoint" />
            <mxPoint x="537.3223304703363" y="232.67766952966372" as="targetPoint" />
          </mxGeometry>
        </mxCell>
      </root>
    </mxGraphModel>
  </diagram>
</mxfile>
